<?xml version="1.0" encoding="UTF-8" standalone="no"?>
<!DOCTYPE svg PUBLIC "-//W3C//DTD SVG 1.1//EN" "http://www.w3.org/Graphics/SVG/1.1/DTD/svg11.dtd">
<svg width="100%" height="100%" viewBox="0 0 21 46" version="1.1" xmlns="http://www.w3.org/2000/svg" xmlns:xlink="http://www.w3.org/1999/xlink" xml:space="preserve" xmlns:serif="http://www.serif.com/" style="fill-rule:evenodd;clip-rule:evenodd;stroke-linejoin:round;stroke-miterlimit:1.41421;">
    <path d="M0,14.502L2.578,14.502C4.48,14.502 4.253,14.792 4.286,12.859C4.318,11.279 4.318,9.668 4.416,8.088C4.576,3.899 7.863,0.483 12.085,0.193C14.727,0 17.402,0.064 20.078,0C20.625,0 20.755,0.257 20.755,0.774C20.755,2.964 20.723,5.123 20.755,7.282C20.788,7.928 20.497,8.088 19.918,8.088C18.564,8.056 17.178,8.056 15.792,8.056C14.922,7.928 14.116,8.539 13.956,9.41L13.956,9.893C13.956,11.183 13.987,12.439 13.956,13.696C13.956,14.341 14.149,14.566 14.826,14.566C16.502,14.533 18.242,14.533 19.949,14.533L20.853,14.533C20.917,14.727 20.917,14.92 20.917,15.115C20.724,17.435 20.498,19.755 20.304,22.076C20.241,22.591 20.014,22.624 19.596,22.624C18.05,22.624 16.47,22.688 14.891,22.624C14.15,22.591 13.957,22.849 13.988,23.558L13.988,43.797C13.988,45.087 13.988,45.087 12.733,45.087C10.283,45.087 7.835,45.054 5.384,45.119C4.547,45.119 4.288,44.861 4.288,44.023C4.32,37.287 4.32,30.552 4.32,23.784C4.32,22.624 4.32,22.624 3.129,22.624L0,22.624L0,14.502Z" style="fill-rule:nonzero;"/>
</svg>
