<?xml version="1.0" encoding="UTF-8" standalone="no"?>
<!DOCTYPE svg PUBLIC "-//W3C//DTD SVG 1.1//EN" "http://www.w3.org/Graphics/SVG/1.1/DTD/svg11.dtd">
<svg width="100%" height="100%" viewBox="0 0 44 44" version="1.1" xmlns="http://www.w3.org/2000/svg" xmlns:xlink="http://www.w3.org/1999/xlink" xml:space="preserve" xmlns:serif="http://www.serif.com/" style="fill-rule:evenodd;clip-rule:evenodd;stroke-linejoin:round;stroke-miterlimit:1.41421;">
    <path d="M32.839,0L10.667,0C4.769,0 0,4.769 0,10.667L0,32.84C0,38.737 4.769,43.507 10.667,43.507L32.839,43.507C38.737,43.507 43.506,38.738 43.506,32.84L43.506,10.667C43.507,4.769 38.737,0 32.839,0ZM22.139,32.259C16.145,32.259 11.28,27.393 11.28,21.398C11.28,15.373 16.145,10.505 22.139,10.505C28.166,10.505 33.033,15.373 33.033,21.398C33.033,27.393 28.166,32.259 22.139,32.259ZM35.136,12.979C33.356,12.979 31.913,11.536 31.913,9.756C31.913,7.977 33.356,6.534 35.136,6.534C36.915,6.534 38.358,7.977 38.358,9.756C38.358,11.536 36.915,12.979 35.136,12.979Z"/>
</svg>
