<?xml version="1.0" encoding="UTF-8" standalone="no"?>
<!DOCTYPE svg PUBLIC "-//W3C//DTD SVG 1.1//EN" "http://www.w3.org/Graphics/SVG/1.1/DTD/svg11.dtd">
<svg width="100%" height="100%" viewBox="0 0 162 59" version="1.1" xmlns="http://www.w3.org/2000/svg" xmlns:xlink="http://www.w3.org/1999/xlink" xml:space="preserve" xmlns:serif="http://www.serif.com/" style="fill-rule:evenodd;clip-rule:evenodd;stroke-linejoin:round;stroke-miterlimit:1.41421;">
    <path d="M20.031,47.826L6.775,34.606L27.607,13.959L25.349,13.925L3.444,35.092L3.374,34.537L3.384,13.959L1.483,13.959L1.483,58.019L3.444,58.019L3.444,37.937L5.387,36.202L27.794,58.006L30.431,58.02L20.031,47.826ZM31.468,58.019L51.507,58.019L51.499,56.165L33.458,56.165L33.459,35.144L51.499,35.156L51.499,33.013L33.459,33.011L33.426,16.007L51.477,15.997L51.477,14.099L31.445,14.104L31.468,58.019ZM83.589,41.808C83.451,41.531 83.53,13.959 83.53,13.959L81.691,13.953L81.631,45.778C81.459,47.651 80.86,49.11 80.165,50.569C78.464,53.933 74.438,56.5 69.961,56.848C63.891,57.68 58.546,54.316 56.327,50.291C55.526,49.074 55.28,47.478 55.002,45.917L54.996,14.063C54.407,14.063 53.202,14.079 53.202,14.079C53.202,14.079 53.202,34.971 53.203,45.581C53.245,48.328 54.225,50.384 54.8,51.297C57.229,55.876 63.265,59.484 69.962,58.651C75.237,58.2 79.851,55.216 81.83,51.33C83.323,48.8 83.624,45.416 83.589,41.808M124.963,58.235L124.972,13.96L122.95,13.96L122.95,53.274C121.945,52.442 121.181,51.435 120.312,50.497L93.422,22.496L85.196,14.099L85.227,58.032L87.304,58.028L87.304,18.991L87.416,18.991L103.448,35.716L115.975,48.9L124.718,58.235L124.963,58.235ZM137.35,13.96L126.524,13.96L126.524,58.019L146.372,58.029L146.372,56.05L128.532,56.085L128.532,35.127L146.372,35.144L146.372,32.978L128.532,32.976L128.532,15.751L137.36,15.751L137.35,13.96ZM160.521,9.589C160.449,9.965 160.232,10.29 159.914,10.506C159.676,10.665 159.398,10.75 159.113,10.75C158.633,10.75 158.184,10.514 157.917,10.118C157.475,9.46 157.649,8.566 158.307,8.122C158.545,7.96 158.823,7.877 159.108,7.877C159.587,7.877 160.035,8.112 160.301,8.511C160.516,8.828 160.593,9.212 160.521,9.589M153.388,17.419C153.388,20.89 150.565,23.712 147.094,23.712C143.624,23.712 140.801,20.889 140.801,17.419C140.801,13.948 143.624,11.124 147.094,11.124C150.564,11.124 153.388,13.948 153.388,17.419M147.094,4.362C146.301,4.362 145.657,3.717 145.657,2.924C145.657,2.132 146.301,1.487 147.094,1.487C147.888,1.487 148.532,2.132 148.532,2.924C148.531,3.718 147.888,4.362 147.094,4.362M152.63,3.946C152.88,3.477 153.366,3.183 153.902,3.183C154.136,3.183 154.363,3.241 154.573,3.352C154.912,3.533 155.16,3.833 155.273,4.202C155.385,4.568 155.348,4.956 155.168,5.296C154.916,5.766 154.432,6.057 153.897,6.057C153.662,6.057 153.433,6.002 153.225,5.888C152.884,5.709 152.638,5.408 152.523,5.04C152.41,4.676 152.449,4.286 152.63,3.946M141.663,5.042C141.553,5.41 141.303,5.711 140.965,5.89C140.754,6.004 140.529,6.059 140.292,6.059C139.759,6.059 139.271,5.766 139.021,5.297C138.841,4.958 138.804,4.569 138.917,4.204C139.027,3.835 139.276,3.535 139.615,3.354C139.825,3.242 140.053,3.185 140.288,3.185C140.824,3.185 141.309,3.478 141.559,3.948C141.739,4.285 141.776,4.676 141.663,5.042M136.271,10.118C136.001,10.514 135.555,10.75 135.077,10.75C134.79,10.75 134.513,10.665 134.274,10.506C133.956,10.29 133.74,9.965 133.667,9.589C133.595,9.212 133.673,8.828 133.888,8.511C134.154,8.113 134.6,7.877 135.081,7.877C135.368,7.877 135.644,7.96 135.882,8.122C136.539,8.566 136.714,9.46 136.271,10.118M161.714,9.82C161.848,9.124 161.704,8.418 161.311,7.831C160.815,7.099 159.993,6.662 159.108,6.662C158.581,6.662 158.069,6.819 157.629,7.116C156.595,7.814 156.258,9.105 156.675,10.225L153.216,12.557C152.673,11.874 152.037,11.277 151.3,10.806L153.261,7.116C153.475,7.171 153.676,7.275 153.898,7.275L153.9,7.275C154.882,7.275 155.781,6.736 156.243,5.868C156.574,5.243 156.644,4.525 156.436,3.847C156.229,3.17 155.771,2.613 155.147,2.281C154.764,2.077 154.332,1.97 153.904,1.97C152.919,1.97 152.018,2.509 151.558,3.377C151.227,4.002 151.157,4.721 151.363,5.397C151.51,5.872 151.813,6.252 152.174,6.573L150.233,10.226C149.452,9.883 148.596,9.695 147.704,9.625L147.704,5.455C148.866,5.173 149.748,4.173 149.748,2.926C149.748,1.463 148.56,0.276 147.097,0.276C145.637,0.276 144.445,1.464 144.445,2.926C144.445,4.173 145.329,5.174 146.491,5.455L146.491,9.625C145.6,9.694 144.743,9.883 143.96,10.228L142.019,6.573C142.383,6.253 142.686,5.872 142.83,5.397C143.04,4.721 142.968,4.002 142.637,3.377C142.175,2.509 141.277,1.97 140.293,1.97C139.862,1.97 139.433,2.077 139.05,2.281C138.426,2.613 137.966,3.17 137.761,3.847C137.551,4.525 137.621,5.243 137.954,5.868C138.416,6.736 139.311,7.275 140.297,7.275C140.517,7.275 140.718,7.171 140.934,7.116L142.897,10.806C142.16,11.277 141.522,11.874 140.978,12.557L137.52,10.225C137.937,9.104 137.602,7.814 136.568,7.116C136.128,6.819 135.616,6.662 135.087,6.662C134.202,6.662 133.38,7.099 132.89,7.831C132.49,8.418 132.346,9.124 132.483,9.819C132.619,10.514 133.016,11.116 133.603,11.512C134.041,11.809 134.554,11.966 135.083,11.966C135.75,11.966 136.336,11.654 136.818,11.216L140.297,13.562C139.646,14.706 139.244,16.01 139.244,17.418C139.244,21.75 142.768,25.272 147.098,25.272C151.431,25.272 154.953,21.75 154.953,17.418C154.953,16.008 154.552,14.706 153.9,13.562L157.379,11.216C157.863,11.654 158.445,11.966 159.116,11.966C159.643,11.966 160.156,11.809 160.595,11.512C161.179,11.116 161.578,10.515 161.714,9.82" style="fill:rgb(29,29,27);fill-rule:nonzero;"/>
</svg>
