<?xml version="1.0" encoding="UTF-8" standalone="no"?>
<!DOCTYPE svg PUBLIC "-//W3C//DTD SVG 1.1//EN" "http://www.w3.org/Graphics/SVG/1.1/DTD/svg11.dtd">
<svg width="100%" height="100%" viewBox="0 0 56 46" version="1.1" xmlns="http://www.w3.org/2000/svg" xmlns:xlink="http://www.w3.org/1999/xlink" xml:space="preserve" xmlns:serif="http://www.serif.com/" style="fill-rule:evenodd;clip-rule:evenodd;stroke-linejoin:round;stroke-miterlimit:1.41421;">
    <path d="M55.335,5.408C54.206,5.795 53.24,6.183 52.241,6.472C51.21,6.73 50.147,6.924 49.116,7.118L49.083,6.989C50.178,6.28 51.146,5.409 51.952,4.379C52.788,3.347 53.434,2.155 53.821,0.865L53.273,1.156C51.339,2.219 49.245,3.026 47.085,3.509C46.795,3.605 46.472,3.509 46.248,3.25C44.508,1.479 42.22,0.381 39.738,0.124C35.452,-0.519 31.198,1.415 28.845,5.056C27.395,7.086 26.718,9.536 26.943,12.018C26.976,12.661 27.071,13.307 27.136,13.984C17.984,13.501 9.475,9.181 3.676,2.124C2.451,4.215 1.934,6.666 2.224,9.082C2.578,12.37 4.351,15.334 7.058,17.204C5.318,17.171 3.61,16.721 2.063,15.882C1.999,18.525 2.9,21.07 4.545,23.133C6.22,25.196 8.508,26.613 11.119,27.161C9.443,27.613 7.703,27.678 5.994,27.388C7.54,31.995 11.796,35.154 16.63,35.347C11.893,38.989 5.963,40.729 0,40.117C1.29,40.891 2.578,41.633 3.933,42.276C7.799,44.016 11.956,44.984 16.179,45.113C20.82,45.305 25.429,44.532 29.716,42.823C35.194,40.664 39.931,36.959 43.314,32.124C47.665,26.226 49.922,19.04 49.729,11.692C49.696,11.37 49.858,11.08 50.114,10.918C51.598,9.822 52.918,8.533 54.08,7.083C54.498,6.601 54.884,6.021 55.335,5.408Z" style="fill-rule:nonzero;"/>
</svg>
