<?xml version="1.0" encoding="UTF-8" standalone="no"?>
<!DOCTYPE svg PUBLIC "-//W3C//DTD SVG 1.1//EN" "http://www.w3.org/Graphics/SVG/1.1/DTD/svg11.dtd">
<svg width="100%" height="100%" viewBox="0 0 52 39" version="1.1" xmlns="http://www.w3.org/2000/svg" xmlns:xlink="http://www.w3.org/1999/xlink" xml:space="preserve" xmlns:serif="http://www.serif.com/" style="fill-rule:evenodd;clip-rule:evenodd;stroke-linejoin:round;stroke-miterlimit:1.41421;">
    <g>
        <path d="M26.003,0C26.026,0 36.923,0.001 44.189,0.564C45.205,0.688 47.42,0.702 49.397,2.909C50.956,4.593 51.464,8.416 51.464,8.416C51.464,8.416 51.984,12.902 51.984,17.39L51.984,21.596C51.984,26.084 51.464,30.57 51.464,30.57C51.464,30.57 50.956,34.393 49.397,36.073C47.42,38.279 45.205,38.292 44.189,38.422C36.915,38.981 25.992,39 25.992,39C25.992,39 12.475,38.868 8.317,38.444C7.16,38.214 4.565,38.281 2.585,36.073C1.027,34.392 0.52,30.571 0.52,30.571C0.52,30.571 0,26.085 0,21.595L0,17.39C0,12.902 0.52,8.416 0.52,8.416C0.52,8.416 1.028,4.593 2.584,2.909C4.564,0.702 6.778,0.688 7.793,0.564C15.059,0.001 25.955,0 25.978,0L26.003,0ZM19.5,9.75L19.5,29.25L35.75,19.5L19.5,9.75Z" style="fill-rule:nonzero;"/>
    </g>
</svg>
