<?xml version="1.0" encoding="UTF-8" standalone="no"?>
<!DOCTYPE svg PUBLIC "-//W3C//DTD SVG 1.1//EN" "http://www.w3.org/Graphics/SVG/1.1/DTD/svg11.dtd">
<svg width="100%" height="100%" viewBox="0 0 57 49" version="1.1" xmlns="http://www.w3.org/2000/svg" xmlns:xlink="http://www.w3.org/1999/xlink" xml:space="preserve" xmlns:serif="http://www.serif.com/" style="fill-rule:evenodd;clip-rule:evenodd;stroke-linejoin:round;stroke-miterlimit:1.41421;">
    <path d="M54.33,17.979C54.367,16.467 53.174,15.212 51.662,15.176C50.156,15.139 48.902,16.332 48.859,17.844C48.822,19.356 50.015,20.611 51.527,20.647L51.594,20.652C53.081,20.677 54.299,19.489 54.329,18.003L54.329,17.979L54.33,17.979ZM18.417,9.037C18.398,7.526 17.157,6.314 15.651,6.338C14.139,6.35 12.927,7.599 12.945,9.11C12.964,10.622 14.206,11.833 15.717,11.815C17.23,11.792 18.436,10.549 18.417,9.037ZM8.484,17.942C8.46,16.43 7.223,15.225 5.718,15.237C4.212,15.225 2.989,16.443 2.983,17.942C3.002,19.454 4.212,20.665 5.718,20.69C7.224,20.672 8.454,19.454 8.484,17.942ZM28.706,3.156C27.206,3.156 25.977,4.355 25.94,5.861C25.927,7.366 27.134,8.591 28.632,8.603C30.138,8.603 31.367,7.404 31.404,5.898C31.404,4.398 30.205,3.181 28.705,3.162L28.705,3.156L28.706,3.156ZM38.927,9C38.854,10.512 40.01,11.803 41.522,11.877C43.034,11.956 44.319,10.788 44.393,9.282L44.398,9.147C44.398,7.636 43.199,6.405 41.699,6.363C40.211,6.351 38.987,7.52 38.927,9ZM28.706,21.4C22.145,21.455 16.87,26.828 16.925,33.402C16.986,39.974 22.347,45.256 28.908,45.195C35.451,45.14 40.714,39.809 40.69,33.26C40.652,26.67 35.291,21.364 28.706,21.4ZM17.016,13.989C13.882,14.343 11.685,13.102 10.859,10.604C10.143,8.346 11.104,5.898 13.16,4.729C15.278,3.554 17.928,4.013 19.531,5.836C21.3,7.862 21.153,10.249 19.066,12.923C20.254,15.132 21.44,17.341 22.628,19.514C24.28,19.122 25.829,18.731 27.444,18.339C27.628,15.824 27.652,13.302 27.518,10.787C25.926,10.376 24.623,9.239 23.993,7.721C23.571,6.68 23.515,5.517 23.852,4.441C24.666,1.773 27.493,0.267 30.168,1.087C31.998,1.644 33.357,3.192 33.676,5.083C34.104,7.543 32.813,9.539 29.862,10.818L29.862,18.333C31.479,18.725 33.063,19.116 34.716,19.508C35.872,17.372 37.062,15.162 38.284,12.886C36.987,11.717 36.374,9.972 36.662,8.253C36.821,7.17 37.36,6.173 38.175,5.438C39.901,3.834 42.501,3.614 44.472,4.906C46.407,6.173 47.214,8.609 46.418,10.781C45.556,13.168 43.432,14.312 40.334,13.988L36.772,20.616C38.034,21.754 39.251,22.826 40.518,23.964C42.569,22.612 44.655,21.185 46.846,19.759C45.867,17.17 47.17,14.276 49.753,13.29L49.802,13.277C52.011,12.445 54.502,13.241 55.819,15.199C57.116,17.145 56.901,19.734 55.286,21.429C53.413,23.357 51.038,23.461 48.126,21.717C46.039,23.107 43.915,24.532 41.798,25.958C45.421,32.495 43.671,40.708 37.691,45.194C32.294,49.147 24.962,49.117 19.594,45.12C13.677,40.599 11.969,32.403 15.598,25.886C13.474,24.472 11.387,23.07 9.27,21.681C6.247,23.431 3.835,23.278 1.999,21.325C0.408,19.612 0.218,17.023 1.54,15.095C2.917,13.143 5.462,12.414 7.66,13.351C10.071,14.348 11.075,16.558 10.499,19.764C12.586,21.154 14.673,22.58 16.76,23.969C18.021,22.862 19.207,21.76 20.506,20.621C19.391,18.475 18.204,16.235 17.016,13.989Z" style="fill:white;"/>
</svg>
